{
	"asset":{
		"generator":"Khronos glTF Blender I/O v4.0.43",
		"version":"2.0"
	},
	"scene":0,
	"scenes":[
		{
			"name":"Scene",
			"nodes":[
				0
			]
		}
	],
	"nodes":[
		{
			"mesh":0,
			"name":"BOTTLE"
		}
	],
	"materials":[
		{
			"doubleSided":true,
			"name":"TexMap",
			"pbrMetallicRoughness":{
				"baseColorTexture":{
					"index":0
				},
				"metallicFactor":0.5,
				"roughnessFactor":0.5
			}
		}
	],
	"meshes":[
		{
			"name":"Mesh_0.023",
			"primitives":[
				{
					"attributes":{
						"POSITION":0,
						"NORMAL":1
					},
					"indices":2,
					"material":0
				}
			]
		}
	],
	"textures":[
		{
			"sampler":0,
			"source":0
		}
	],
	"images":[
		{
			"mimeType":"image/jpeg",
			"name":"GARBAGE_BASECOLOR",
			"uri":"GARBAGE_BASECOLOR.jpg"
		}
	],
	"accessors":[
		{
			"bufferView":0,
			"componentType":5126,
			"count":322,
			"max":[
				0.07563993334770203,
				0.29515090584754944,
				0.07564288377761841
			],
			"min":[
				-0.07564705610275269,
				-0.1875360906124115,
				-0.07564511895179749
			],
			"type":"VEC3"
		},
		{
			"bufferView":1,
			"componentType":5126,
			"count":322,
			"type":"VEC3"
		},
		{
			"bufferView":2,
			"componentType":5123,
			"count":1536,
			"type":"SCALAR"
		}
	],
	"bufferViews":[
		{
			"buffer":0,
			"byteLength":3864,
			"byteOffset":0,
			"target":34962
		},
		{
			"buffer":0,
			"byteLength":3864,
			"byteOffset":3864,
			"target":34962
		},
		{
			"buffer":0,
			"byteLength":3072,
			"byteOffset":7728,
			"target":34963
		}
	],
	"samplers":[
		{
			"magFilter":9729,
			"minFilter":9987
		}
	],
	"buffers":[
		{
			"byteLength":10800,
			"uri":"BOTTLE.bin"
		}
	]
}
