{
	"asset":{
		"generator":"Khronos glTF Blender I/O v4.0.43",
		"version":"2.0"
	},
	"scene":0,
	"scenes":[
		{
			"extras":{
				"MM":{
					"revision":"34cce8d571972baaa5e5b2439acb5fb2950ee282"
				},
				"air_props":{},
				"coat3D":{},
				"bc":{
					"snap":{
						"hit":false
					}
				},
				"qremesher":{
					"adaptive_size":49.60207748413086,
					"symmetry_x":1,
					"target_count":555
				},
				"uvpm3_props":{
					"scripted_props":{},
					"heuristic_enable":1,
					"pixel_margin_enable":1,
					"pixel_margin_tex_size":4096,
					"lock_overlapping_enable":0,
					"normalize_islands":1,
					"fixed_scale":1,
					"fixed_scale_strategy":2,
					"rotation_enable":1,
					"pre_rotation_disable":1,
					"island_rot_step_enable":1,
					"numbered_groups_descriptors":{
						"stack_group":{},
						"lock_group":{},
						"track_group":{}
					}
				},
				"texToolsSettings":{},
				"ypui":{
					"expand_channels":0,
					"expand_mask_channels":0,
					"show_bake_targets":0,
					"show_channels":1,
					"show_layers":1,
					"show_materials":0,
					"show_object":0,
					"show_stats":0,
					"show_support":0,
					"tree_name":""
				},
				"handy_weight_edit_props":{},
				"mblab_character_name":6,
				"mblab_use_eevee":1,
				"mblab_use_cycles":0,
				"mblab_use_ik":0,
				"mbcrea_root_data":1,
				"morphingCategory":5,
				"mblab_save_images_and_backup":0,
				"softwrap_settings":{
					"source_mesh":{
						"name":"Retopo_MBlab_bd1691614347.001",
						"type":"Object"
					},
					"target_mesh":{
						"name":"MBlab_bd1691614347.002",
						"type":"Object"
					},
					"is_running":0
				},
				"bsurfaces":{
					"SURFSK_mesh":{}
				},
				"DragAndDropSupportProperties":{},
				"mix_source_armature":{},
				"hdri_prop_scn":{},
				"muv_pack_uv_enabled":1,
				"csdf":{}
			},
			"name":"Scene",
			"nodes":[
				0
			]
		}
	],
	"nodes":[
		{
			"extras":{
				"MM":{}
			},
			"mesh":0,
			"name":"icecream"
		}
	],
	"materials":[
		{
			"name":"icacream_mat",
			"normalTexture":{
				"index":0
			},
			"pbrMetallicRoughness":{
				"baseColorTexture":{
					"index":1
				},
				"metallicFactor":0,
				"metallicRoughnessTexture":{
					"index":2
				}
			}
		}
	],
	"meshes":[
		{
			"name":"mesh0.001",
			"primitives":[
				{
					"attributes":{
						"POSITION":0,
						"NORMAL":1,
						"TEXCOORD_0":2
					},
					"indices":3,
					"material":0
				}
			]
		}
	],
	"textures":[
		{
			"sampler":0,
			"source":0
		},
		{
			"sampler":0,
			"source":1
		},
		{
			"sampler":0,
			"source":2
		}
	],
	"images":[
		{
			"mimeType":"image/jpeg",
			"name":"IceCream_Normal",
			"uri":"IceCream_Normal.jpg"
		},
		{
			"mimeType":"image/jpeg",
			"name":"IceCream_BaseColor",
			"uri":"IceCream_BaseColor.jpg"
		},
		{
			"mimeType":"image/jpeg",
			"name":"IceCream_Roughness",
			"uri":"IceCream_Roughness.jpg"
		}
	],
	"accessors":[
		{
			"bufferView":0,
			"componentType":5126,
			"count":18866,
			"max":[
				0.04849325120449066,
				0.10608559101819992,
				0.05036113038659096
			],
			"min":[
				-0.052158500999212265,
				-0.09403401613235474,
				-0.04874927178025246
			],
			"type":"VEC3"
		},
		{
			"bufferView":1,
			"componentType":5126,
			"count":18866,
			"type":"VEC3"
		},
		{
			"bufferView":2,
			"componentType":5126,
			"count":18866,
			"type":"VEC2"
		},
		{
			"bufferView":3,
			"componentType":5123,
			"count":107520,
			"type":"SCALAR"
		}
	],
	"bufferViews":[
		{
			"buffer":0,
			"byteLength":226392,
			"byteOffset":0,
			"target":34962
		},
		{
			"buffer":0,
			"byteLength":226392,
			"byteOffset":226392,
			"target":34962
		},
		{
			"buffer":0,
			"byteLength":150928,
			"byteOffset":452784,
			"target":34962
		},
		{
			"buffer":0,
			"byteLength":215040,
			"byteOffset":603712,
			"target":34963
		}
	],
	"samplers":[
		{
			"magFilter":9729,
			"minFilter":9987
		}
	],
	"buffers":[
		{
			"byteLength":818752,
			"uri":"icecream.bin"
		}
	]
}
