{
	"asset":{
		"generator":"Khronos glTF Blender I/O v4.0.43",
		"version":"2.0"
	},
	"scene":0,
	"scenes":[
		{
			"extras":{
				"MM":{
					"revision":"34cce8d571972baaa5e5b2439acb5fb2950ee282"
				},
				"air_props":{},
				"mblab_character_name":6,
				"mblab_use_eevee":1,
				"mblab_use_cycles":0,
				"mblab_use_ik":0,
				"mbcrea_root_data":1,
				"morphingCategory":5,
				"mblab_save_images_and_backup":0,
				"qremesher":{
					"adaptive_size":49.60207748413086,
					"symmetry_x":1,
					"target_count":555
				},
				"softwrap_settings":{
					"source_mesh":{
						"name":"Retopo_MBlab_bd1691614347.001",
						"type":"Object"
					},
					"target_mesh":{
						"name":"MBlab_bd1691614347.002",
						"type":"Object"
					},
					"is_running":0
				},
				"bsurfaces":{
					"SURFSK_mesh":{}
				},
				"DragAndDropSupportProperties":{},
				"mix_source_armature":{},
				"hdri_prop_scn":{},
				"coat3D":{},
				"muv_pack_uv_enabled":1,
				"texToolsSettings":{},
				"ypui":{
					"expand_channels":0,
					"expand_mask_channels":0,
					"show_bake_targets":0,
					"show_channels":1,
					"show_layers":1,
					"show_materials":0,
					"show_object":0,
					"show_stats":0,
					"show_support":0,
					"tree_name":""
				},
				"csdf":{},
				"handy_weight_edit_props":{},
				"batch_export":{
					"directory":"//COSMO_LONLINESS\\ASSETS\\trash_objs\\garbage\\",
					"mode":1,
					"gltf_preset":"glTF_sep_jpg_noUV",
					"object_types":1,
					"limit":2,
					"file_format":6
				},
				"cl_settings":{
					"cl_selected_mode":"SELECTION STATE",
					"cl_running_bool":1,
					"cl_menuact_str":""
				},
				"gizmo_show_hide":1,
				"uvpm3_props":{
					"scripted_props":{},
					"heuristic_enable":1,
					"pixel_margin_enable":1,
					"pixel_margin_tex_size":4096,
					"lock_overlapping_enable":0,
					"normalize_islands":1,
					"fixed_scale":1,
					"fixed_scale_strategy":2,
					"rotation_enable":1,
					"pre_rotation_disable":1,
					"island_rot_step_enable":1,
					"numbered_groups_descriptors":{
						"stack_group":{},
						"lock_group":{},
						"track_group":{}
					}
				},
				"TT_bake_mode":4,
				"ve_edit":{},
				"keentools_gt_settings":{},
				"keentools_fb_settings":{},
				"bc":{
					"snap":{
						"hit":false
					}
				}
			},
			"name":"Scene",
			"nodes":[
				0
			]
		}
	],
	"nodes":[
		{
			"extras":{
				"MM":{},
				"speedretopo_ref_object":{}
			},
			"mesh":0,
			"name":"PC"
		}
	],
	"materials":[
		{
			"doubleSided":true,
			"extras":{
				"yp":{
					"active_ypaint_node":""
				}
			},
			"name":"PC_mat",
			"pbrMetallicRoughness":{
				"baseColorTexture":{
					"index":0
				},
				"metallicFactor":0,
				"roughnessFactor":0.5
			}
		}
	],
	"meshes":[
		{
			"name":"Cube.009",
			"primitives":[
				{
					"attributes":{
						"POSITION":0,
						"NORMAL":1,
						"TEXCOORD_0":2,
						"TEXCOORD_1":3
					},
					"indices":4,
					"material":0
				}
			]
		}
	],
	"textures":[
		{
			"sampler":0,
			"source":0
		}
	],
	"images":[
		{
			"mimeType":"image/jpeg",
			"name":"pc_base_color",
			"uri":"pc_base_color.jpg"
		}
	],
	"accessors":[
		{
			"bufferView":0,
			"componentType":5126,
			"count":4683,
			"max":[
				0.5586550235748291,
				0.777642548084259,
				0.8784232139587402
			],
			"min":[
				-0.5934035778045654,
				-0.010231755673885345,
				-0.29835638403892517
			],
			"type":"VEC3"
		},
		{
			"bufferView":1,
			"componentType":5126,
			"count":4683,
			"type":"VEC3"
		},
		{
			"bufferView":2,
			"componentType":5126,
			"count":4683,
			"type":"VEC2"
		},
		{
			"bufferView":3,
			"componentType":5126,
			"count":4683,
			"type":"VEC2"
		},
		{
			"bufferView":4,
			"componentType":5123,
			"count":17214,
			"type":"SCALAR"
		}
	],
	"bufferViews":[
		{
			"buffer":0,
			"byteLength":56196,
			"byteOffset":0,
			"target":34962
		},
		{
			"buffer":0,
			"byteLength":56196,
			"byteOffset":56196,
			"target":34962
		},
		{
			"buffer":0,
			"byteLength":37464,
			"byteOffset":112392,
			"target":34962
		},
		{
			"buffer":0,
			"byteLength":37464,
			"byteOffset":149856,
			"target":34962
		},
		{
			"buffer":0,
			"byteLength":34428,
			"byteOffset":187320,
			"target":34963
		}
	],
	"samplers":[
		{
			"magFilter":9729,
			"minFilter":9987
		}
	],
	"buffers":[
		{
			"byteLength":221748,
			"uri":"PC.bin"
		}
	]
}
