{
	"asset":{
		"generator":"Khronos glTF Blender I/O v4.0.43",
		"version":"2.0"
	},
	"scene":0,
	"scenes":[
		{
			"extras":{
				"MM":{
					"revision":"34cce8d571972baaa5e5b2439acb5fb2950ee282"
				},
				"air_props":{},
				"mblab_character_name":6,
				"mblab_use_eevee":1,
				"mblab_use_cycles":0,
				"mblab_use_ik":0,
				"mbcrea_root_data":1,
				"morphingCategory":5,
				"mblab_save_images_and_backup":0,
				"qremesher":{
					"adaptive_size":49.60207748413086,
					"symmetry_x":1,
					"target_count":555
				},
				"softwrap_settings":{
					"source_mesh":{
						"name":"Retopo_MBlab_bd1691614347.001",
						"type":"Object"
					},
					"target_mesh":{
						"name":"MBlab_bd1691614347.002",
						"type":"Object"
					},
					"is_running":0
				},
				"bsurfaces":{
					"SURFSK_mesh":{}
				},
				"DragAndDropSupportProperties":{},
				"mix_source_armature":{},
				"hdri_prop_scn":{},
				"coat3D":{},
				"muv_pack_uv_enabled":1,
				"texToolsSettings":{},
				"ypui":{
					"expand_channels":0,
					"expand_mask_channels":0,
					"show_bake_targets":0,
					"show_channels":1,
					"show_layers":1,
					"show_materials":0,
					"show_object":0,
					"show_stats":0,
					"show_support":0,
					"tree_name":""
				},
				"csdf":{},
				"handy_weight_edit_props":{}
			},
			"name":"Scene",
			"nodes":[
				0
			]
		}
	],
	"nodes":[
		{
			"extras":{
				"MM":{}
			},
			"mesh":0,
			"name":"Mesh_0.021",
			"scale":[
				0.1178218424320221,
				0.1178218424320221,
				0.1178218424320221
			],
			"translation":[
				0.017770443111658096,
				0.1037176176905632,
				0
			]
		}
	],
	"materials":[
		{
			"doubleSided":true,
			"name":"mat_0-BERETTA2.jpg",
			"pbrMetallicRoughness":{
				"baseColorFactor":[
					0.6980389952659607,
					0.6980389952659607,
					0.6980389952659607,
					1
				],
				"baseColorTexture":{
					"index":0
				},
				"metallicFactor":0.5,
				"roughnessFactor":0.5
			}
		}
	],
	"meshes":[
		{
			"name":"Mesh_0.021",
			"primitives":[
				{
					"attributes":{
						"POSITION":0,
						"NORMAL":1,
						"TEXCOORD_0":2
					},
					"indices":3,
					"material":0
				}
			]
		}
	],
	"textures":[
		{
			"sampler":0,
			"source":0
		}
	],
	"images":[
		{
			"mimeType":"image/jpeg",
			"name":"pistol_BaseColor",
			"uri":"pistol_BaseColor.jpg"
		}
	],
	"accessors":[
		{
			"bufferView":0,
			"componentType":5126,
			"count":4275,
			"max":[
				1.2499998807907104,
				0.8157150149345398,
				0.15368683636188507
			],
			"min":[
				-1.25,
				-0.8157150149345398,
				-0.15368890762329102
			],
			"type":"VEC3"
		},
		{
			"bufferView":1,
			"componentType":5126,
			"count":4275,
			"type":"VEC3"
		},
		{
			"bufferView":2,
			"componentType":5126,
			"count":4275,
			"type":"VEC2"
		},
		{
			"bufferView":3,
			"componentType":5123,
			"count":4443,
			"type":"SCALAR"
		}
	],
	"bufferViews":[
		{
			"buffer":0,
			"byteLength":51300,
			"byteOffset":0,
			"target":34962
		},
		{
			"buffer":0,
			"byteLength":51300,
			"byteOffset":51300,
			"target":34962
		},
		{
			"buffer":0,
			"byteLength":34200,
			"byteOffset":102600,
			"target":34962
		},
		{
			"buffer":0,
			"byteLength":8886,
			"byteOffset":136800,
			"target":34963
		}
	],
	"samplers":[
		{
			"magFilter":9729,
			"minFilter":9987
		}
	],
	"buffers":[
		{
			"byteLength":145688,
			"uri":"pistol.bin"
		}
	]
}
