{
	"asset":{
		"generator":"Khronos glTF Blender I/O v4.0.43",
		"version":"2.0"
	},
	"extensionsUsed":[
		"KHR_materials_specular",
		"KHR_materials_ior"
	],
	"scene":0,
	"scenes":[
		{
			"extras":{
				"MM":{
					"revision":"34cce8d571972baaa5e5b2439acb5fb2950ee282"
				},
				"air_props":{},
				"mblab_character_name":6,
				"mblab_use_eevee":1,
				"mblab_use_cycles":0,
				"mblab_use_ik":0,
				"mbcrea_root_data":1,
				"morphingCategory":5,
				"mblab_save_images_and_backup":0,
				"qremesher":{
					"adaptive_size":49.60207748413086,
					"symmetry_x":1,
					"target_count":555
				},
				"softwrap_settings":{
					"source_mesh":{
						"name":"Retopo_MBlab_bd1691614347.001",
						"type":"Object"
					},
					"target_mesh":{
						"name":"MBlab_bd1691614347.002",
						"type":"Object"
					},
					"is_running":0
				},
				"bsurfaces":{
					"SURFSK_mesh":{}
				},
				"DragAndDropSupportProperties":{},
				"mix_source_armature":{},
				"hdri_prop_scn":{},
				"coat3D":{},
				"muv_pack_uv_enabled":1,
				"texToolsSettings":{},
				"ypui":{
					"expand_channels":0,
					"expand_mask_channels":0,
					"show_bake_targets":0,
					"show_channels":1,
					"show_layers":1,
					"show_materials":0,
					"show_object":0,
					"show_stats":0,
					"show_support":0,
					"tree_name":""
				},
				"csdf":{},
				"handy_weight_edit_props":{}
			},
			"name":"Scene",
			"nodes":[
				0
			]
		}
	],
	"nodes":[
		{
			"extras":{
				"MM":{}
			},
			"mesh":0,
			"name":"joystick",
			"rotation":[
				0.7071067690849304,
				0,
				0,
				0.7071068286895752
			],
			"scale":[
				0.0007587719010189176,
				0.0007587719010189176,
				0.0007587719010189176
			],
			"translation":[
				0,
				0.13326318562030792,
				0
			]
		}
	],
	"materials":[
		{
			"doubleSided":true,
			"extensions":{
				"KHR_materials_specular":{
					"specularFactor":0
				},
				"KHR_materials_ior":{
					"ior":1.4500000476837158
				}
			},
			"extras":{
				"yp":{
					"active_ypaint_node":""
				}
			},
			"name":"object_0.017",
			"normalTexture":{
				"index":0
			},
			"pbrMetallicRoughness":{
				"baseColorTexture":{
					"index":1
				},
				"metallicRoughnessTexture":{
					"index":2
				}
			}
		}
	],
	"meshes":[
		{
			"name":"model",
			"primitives":[
				{
					"attributes":{
						"POSITION":0,
						"NORMAL":1,
						"TEXCOORD_0":2
					},
					"indices":3,
					"material":0
				}
			]
		}
	],
	"textures":[
		{
			"sampler":0,
			"source":0
		},
		{
			"sampler":0,
			"source":1
		},
		{
			"sampler":0,
			"source":2
		}
	],
	"images":[
		{
			"mimeType":"image/jpeg",
			"name":"joystick_Normal",
			"uri":"joystick_Normal.jpg"
		},
		{
			"mimeType":"image/jpeg",
			"name":"joystick_BaseColor",
			"uri":"joystick_BaseColor.jpg"
		},
		{
			"mimeType":"image/jpeg",
			"name":"joystick_Metallic-joystick_Roughness",
			"uri":"joystick_Metallic-joystick_Roughness.jpg"
		}
	],
	"accessors":[
		{
			"bufferView":0,
			"componentType":5126,
			"count":1360,
			"max":[
				225.42494201660156,
				32.67950439453125,
				171.79261779785156
			],
			"min":[
				-225.44931030273438,
				-162.16879272460938,
				-116.16187286376953
			],
			"type":"VEC3"
		},
		{
			"bufferView":1,
			"componentType":5126,
			"count":1360,
			"type":"VEC3"
		},
		{
			"bufferView":2,
			"componentType":5126,
			"count":1360,
			"type":"VEC2"
		},
		{
			"bufferView":3,
			"componentType":5123,
			"count":4728,
			"type":"SCALAR"
		}
	],
	"bufferViews":[
		{
			"buffer":0,
			"byteLength":16320,
			"byteOffset":0,
			"target":34962
		},
		{
			"buffer":0,
			"byteLength":16320,
			"byteOffset":16320,
			"target":34962
		},
		{
			"buffer":0,
			"byteLength":10880,
			"byteOffset":32640,
			"target":34962
		},
		{
			"buffer":0,
			"byteLength":9456,
			"byteOffset":43520,
			"target":34963
		}
	],
	"samplers":[
		{
			"magFilter":9729,
			"minFilter":9987
		}
	],
	"buffers":[
		{
			"byteLength":52976,
			"uri":"joystick.bin"
		}
	]
}
